{
	"asset":{
		"generator":"Khronos glTF Blender I/O v4.1.63",
		"version":"2.0"
	},
	"scene":0,
	"scenes":[
		{
			"name":"Scene",
			"nodes":[
				0,
				1,
				2,
				3,
				4,
				5,
				6,
				7,
				8,
				9,
				10,
				11,
				12,
				13,
				14,
				15
			]
		}
	],
	"nodes":[
		{
			"mesh":0,
			"name":"Cube",
			"translation":[
				0,
				2.6482393741607666,
				-29.819351196289062
			]
		},
		{
			"mesh":1,
			"name":"Cube.001",
			"scale":[
				1,
				1,
				50.14999771118164
			],
			"translation":[
				0,
				1.117614507675171,
				17.982746124267578
			]
		},
		{
			"mesh":2,
			"name":"Cube.002",
			"rotation":[
				0,
				0.7071068286895752,
				0,
				0.7071068286895752
			],
			"scale":[
				1.091505765914917,
				1,
				54.739009857177734
			],
			"translation":[
				0.4512596130371094,
				0.9704174995422363,
				69.3071060180664
			]
		},
		{
			"mesh":3,
			"name":"Plane",
			"scale":[
				79.20091247558594,
				1,
				81.86251068115234
			],
			"translation":[
				-2.2078609466552734,
				0.25911885499954224,
				-0.011988639831542969
			]
		},
		{
			"mesh":4,
			"name":"KUBSSS",
			"scale":[
				1.0499999523162842,
				0.30000001192092896,
				1.0499999523162842
			],
			"translation":[
				0,
				16.397581100463867,
				-29.879579544067383
			]
		},
		{
			"mesh":5,
			"name":"!prieksaAAAA",
			"scale":[
				1.0499999523162842,
				0.30000001192092896,
				1.0499999523162842
			],
			"translation":[
				0,
				16.397581100463867,
				-29.79944610595703
			]
		},
		{
			"mesh":6,
			"name":"Mball.001",
			"scale":[
				67.25797271728516,
				67.25797271728516,
				67.25797271728516
			],
			"translation":[
				0.035429228097200394,
				1.9563236236572266,
				-0.02504277229309082
			]
		},
		{
			"mesh":7,
			"name":"!aizmugureAAA",
			"rotation":[
				0,
				-1,
				0,
				4.371139183945161e-08
			],
			"scale":[
				1.0499999523162842,
				0.30000001192092896,
				1.0499999523162842
			],
			"translation":[
				0,
				16.397581100463867,
				-27.712562561035156
			]
		},
		{
			"mesh":8,
			"name":"!sansAAAA",
			"rotation":[
				0,
				0.7071068286895752,
				0,
				0.7071068286895752
			],
			"scale":[
				1.0499999523162842,
				0.30000001192092896,
				1.0499999523162842
			],
			"translation":[
				-1.0230913162231445,
				16.397581100463867,
				-28.79806137084961
			]
		},
		{
			"mesh":9,
			"name":"!sansAAAA.001",
			"rotation":[
				0,
				-0.7071068286895752,
				0,
				0.7071068286895752
			],
			"scale":[
				1.0499999523162842,
				0.30000001192092896,
				1.0499999523162842
			],
			"translation":[
				1.0214937925338745,
				16.397581100463867,
				-28.79806137084961
			]
		},
		{
			"mesh":10,
			"name":"Cube.004",
			"scale":[
				1,
				1,
				50.14999771118164
			],
			"translation":[
				0,
				1.1711336374282837,
				17.982746124267578
			]
		},
		{
			"mesh":11,
			"name":"Cube.005",
			"scale":[
				0.6000000238418579,
				1,
				10.27575969696045
			],
			"translation":[
				0,
				1.2568342685699463,
				18.142379760742188
			]
		},
		{
			"mesh":12,
			"name":"Cube.003",
			"scale":[
				0.6000000238418579,
				1,
				10.27575969696045
			],
			"translation":[
				0,
				1.2486625909805298,
				38.3660774230957
			]
		},
		{
			"mesh":13,
			"name":"Cube.006",
			"scale":[
				0.6000000238418579,
				1,
				10.27575969696045
			],
			"translation":[
				0,
				1.2700343132019043,
				58.339229583740234
			]
		},
		{
			"mesh":14,
			"name":"Cube.007",
			"scale":[
				0.6000000238418579,
				1,
				10.27575969696045
			],
			"translation":[
				0,
				1.2486625909805298,
				-2.023120880126953
			]
		},
		{
			"mesh":15,
			"name":"Cube.008",
			"scale":[
				0.6000000238418579,
				1,
				10.27575969696045
			],
			"translation":[
				0,
				1.2568342685699463,
				-20.13756561279297
			]
		}
	],
	"materials":[
		{
			"doubleSided":true,
			"name":"Material",
			"pbrMetallicRoughness":{
				"baseColorTexture":{
					"index":0
				},
				"metallicFactor":0,
				"roughnessFactor":0.5
			}
		},
		{
			"doubleSided":true,
			"name":"Material.001",
			"pbrMetallicRoughness":{
				"baseColorTexture":{
					"index":1
				},
				"metallicFactor":0
			}
		},
		{
			"doubleSided":true,
			"name":"Material.003",
			"pbrMetallicRoughness":{
				"baseColorTexture":{
					"index":2
				},
				"metallicFactor":0,
				"roughnessFactor":0.5
			}
		},
		{
			"doubleSided":true,
			"name":"Material.005",
			"pbrMetallicRoughness":{
				"baseColorTexture":{
					"index":3
				}
			}
		},
		{
			"doubleSided":true,
			"name":"Material.006",
			"pbrMetallicRoughness":{
				"metallicFactor":0,
				"roughnessFactor":0.5
			}
		},
		{
			"doubleSided":true,
			"name":"Material.008",
			"pbrMetallicRoughness":{
				"baseColorTexture":{
					"index":4
				},
				"metallicFactor":0,
				"roughnessFactor":0.5
			}
		},
		{
			"doubleSided":true,
			"name":"Material.002",
			"pbrMetallicRoughness":{
				"metallicFactor":0,
				"roughnessFactor":0.5
			}
		},
		{
			"doubleSided":true,
			"name":"Material.013",
			"pbrMetallicRoughness":{
				"baseColorTexture":{
					"index":5
				},
				"metallicFactor":0,
				"roughnessFactor":0.5
			}
		},
		{
			"doubleSided":true,
			"name":"Material.014",
			"pbrMetallicRoughness":{
				"baseColorTexture":{
					"index":6
				},
				"metallicFactor":0,
				"roughnessFactor":0.5
			}
		},
		{
			"doubleSided":true,
			"name":"Material.015",
			"pbrMetallicRoughness":{
				"baseColorTexture":{
					"index":7
				},
				"metallicFactor":0,
				"roughnessFactor":0.5
			}
		},
		{
			"doubleSided":true,
			"name":"Material.016",
			"pbrMetallicRoughness":{
				"baseColorTexture":{
					"index":8
				},
				"metallicFactor":0,
				"roughnessFactor":0.5
			}
		},
		{
			"doubleSided":true,
			"name":"Material.017",
			"pbrMetallicRoughness":{
				"baseColorTexture":{
					"index":9
				},
				"metallicFactor":0
			}
		},
		{
			"doubleSided":true,
			"name":"Material.018",
			"pbrMetallicRoughness":{
				"baseColorTexture":{
					"index":10
				},
				"metallicFactor":0
			}
		},
		{
			"doubleSided":true,
			"name":"Material.019",
			"pbrMetallicRoughness":{
				"baseColorTexture":{
					"index":11
				},
				"metallicFactor":0
			}
		},
		{
			"doubleSided":true,
			"name":"Material.020",
			"pbrMetallicRoughness":{
				"baseColorTexture":{
					"index":12
				},
				"metallicFactor":0
			}
		},
		{
			"doubleSided":true,
			"name":"Material.021",
			"pbrMetallicRoughness":{
				"baseColorTexture":{
					"index":13
				},
				"metallicFactor":0
			}
		}
	],
	"meshes":[
		{
			"name":"Cube",
			"primitives":[
				{
					"attributes":{
						"POSITION":0,
						"NORMAL":1,
						"TEXCOORD_0":2
					},
					"indices":3,
					"material":0
				}
			]
		},
		{
			"name":"Cube.001",
			"primitives":[
				{
					"attributes":{
						"POSITION":4,
						"NORMAL":5,
						"TEXCOORD_0":6
					},
					"indices":7,
					"material":1
				}
			]
		},
		{
			"name":"Cube.002",
			"primitives":[
				{
					"attributes":{
						"POSITION":8,
						"NORMAL":9,
						"TEXCOORD_0":10
					},
					"indices":3,
					"material":2
				}
			]
		},
		{
			"name":"Plane",
			"primitives":[
				{
					"attributes":{
						"POSITION":11,
						"NORMAL":12,
						"TEXCOORD_0":13
					},
					"indices":14,
					"material":3
				}
			]
		},
		{
			"name":"Cube.005",
			"primitives":[
				{
					"attributes":{
						"POSITION":15,
						"NORMAL":16,
						"TEXCOORD_0":17
					},
					"indices":3,
					"material":4
				}
			]
		},
		{
			"name":"Cube.007",
			"primitives":[
				{
					"attributes":{
						"POSITION":18,
						"NORMAL":19,
						"TEXCOORD_0":20
					},
					"indices":21,
					"material":5
				}
			]
		},
		{
			"name":"Mesh",
			"primitives":[
				{
					"attributes":{
						"POSITION":22,
						"NORMAL":23
					},
					"indices":24,
					"material":6
				}
			]
		},
		{
			"name":"Cube.015",
			"primitives":[
				{
					"attributes":{
						"POSITION":25,
						"NORMAL":26,
						"TEXCOORD_0":27
					},
					"indices":21,
					"material":7
				}
			]
		},
		{
			"name":"Cube.016",
			"primitives":[
				{
					"attributes":{
						"POSITION":28,
						"NORMAL":29,
						"TEXCOORD_0":30
					},
					"indices":21,
					"material":8
				}
			]
		},
		{
			"name":"Cube.017",
			"primitives":[
				{
					"attributes":{
						"POSITION":31,
						"NORMAL":32,
						"TEXCOORD_0":33
					},
					"indices":21,
					"material":9
				}
			]
		},
		{
			"name":"Cube.019",
			"primitives":[
				{
					"attributes":{
						"POSITION":34,
						"NORMAL":35,
						"TEXCOORD_0":36
					},
					"indices":37,
					"material":10
				}
			]
		},
		{
			"name":"Cube.020",
			"primitives":[
				{
					"attributes":{
						"POSITION":38,
						"NORMAL":39,
						"TEXCOORD_0":40
					},
					"indices":37,
					"material":11
				}
			]
		},
		{
			"name":"Cube.021",
			"primitives":[
				{
					"attributes":{
						"POSITION":41,
						"NORMAL":42,
						"TEXCOORD_0":43
					},
					"indices":37,
					"material":12
				}
			]
		},
		{
			"name":"Cube.022",
			"primitives":[
				{
					"attributes":{
						"POSITION":44,
						"NORMAL":45,
						"TEXCOORD_0":46
					},
					"indices":37,
					"material":13
				}
			]
		},
		{
			"name":"Cube.023",
			"primitives":[
				{
					"attributes":{
						"POSITION":47,
						"NORMAL":48,
						"TEXCOORD_0":49
					},
					"indices":37,
					"material":14
				}
			]
		},
		{
			"name":"Cube.024",
			"primitives":[
				{
					"attributes":{
						"POSITION":50,
						"NORMAL":51,
						"TEXCOORD_0":52
					},
					"indices":37,
					"material":15
				}
			]
		}
	],
	"textures":[
		{
			"sampler":0,
			"source":0
		},
		{
			"sampler":0,
			"source":1
		},
		{
			"sampler":0,
			"source":2
		},
		{
			"sampler":0,
			"source":3
		},
		{
			"sampler":0,
			"source":4
		},
		{
			"sampler":0,
			"source":4
		},
		{
			"sampler":0,
			"source":4
		},
		{
			"sampler":0,
			"source":4
		},
		{
			"sampler":0,
			"source":1
		},
		{
			"sampler":0,
			"source":5
		},
		{
			"sampler":0,
			"source":5
		},
		{
			"sampler":0,
			"source":5
		},
		{
			"sampler":0,
			"source":5
		},
		{
			"sampler":0,
			"source":5
		}
	],
	"images":[
		{
			"mimeType":"image/png",
			"name":"sienas",
			"uri":"textures/sienas.png"
		},
		{
			"mimeType":"image/jpeg",
			"name":"zale",
			"uri":"textures/zale.jpg"
		},
		{
			"mimeType":"image/jpeg",
			"name":"akmeni",
			"uri":"textures/akmeni.jpg"
		},
		{
			"mimeType":"image/jpeg",
			"name":"udens",
			"uri":"textures/udens.jpg"
		},
		{
			"mimeType":"image/jpeg",
			"name":"ogreeezooom23344",
			"uri":"textures/ogreeezooom23344.jpg"
		},
		{
			"mimeType":"image/jpeg",
			"name":"brugis",
			"uri":"textures/brugis.jpg"
		}
	],
	"accessors":[
		{
			"bufferView":0,
			"componentType":5126,
			"count":24,
			"max":[
				2.02512526512146,
				14.923344612121582,
				3.07149600982666
			],
			"min":[
				-2.031395435333252,
				-1,
				-1
			],
			"type":"VEC3"
		},
		{
			"bufferView":1,
			"componentType":5126,
			"count":24,
			"type":"VEC3"
		},
		{
			"bufferView":2,
			"componentType":5126,
			"count":24,
			"type":"VEC2"
		},
		{
			"bufferView":3,
			"componentType":5123,
			"count":36,
			"type":"SCALAR"
		},
		{
			"bufferView":4,
			"componentType":5126,
			"count":20,
			"max":[
				5.6707072257995605,
				1,
				1
			],
			"min":[
				-5.61834716796875,
				-1,
				-1
			],
			"type":"VEC3"
		},
		{
			"bufferView":5,
			"componentType":5126,
			"count":20,
			"type":"VEC3"
		},
		{
			"bufferView":6,
			"componentType":5126,
			"count":20,
			"type":"VEC2"
		},
		{
			"bufferView":7,
			"componentType":5123,
			"count":30,
			"type":"SCALAR"
		},
		{
			"bufferView":8,
			"componentType":5126,
			"count":24,
			"max":[
				5.6707072257995605,
				1,
				1
			],
			"min":[
				-7.494873046875,
				-1,
				-1
			],
			"type":"VEC3"
		},
		{
			"bufferView":9,
			"componentType":5126,
			"count":24,
			"type":"VEC3"
		},
		{
			"bufferView":10,
			"componentType":5126,
			"count":24,
			"type":"VEC2"
		},
		{
			"bufferView":11,
			"componentType":5126,
			"count":4,
			"max":[
				1,
				0,
				1
			],
			"min":[
				-1,
				0,
				-1
			],
			"type":"VEC3"
		},
		{
			"bufferView":12,
			"componentType":5126,
			"count":4,
			"type":"VEC3"
		},
		{
			"bufferView":13,
			"componentType":5126,
			"count":4,
			"type":"VEC2"
		},
		{
			"bufferView":14,
			"componentType":5123,
			"count":6,
			"type":"SCALAR"
		},
		{
			"bufferView":15,
			"componentType":5126,
			"count":24,
			"max":[
				2.02512526512146,
				14.923344612121582,
				3.07149600982666
			],
			"min":[
				-2.031395435333252,
				-1,
				-1
			],
			"type":"VEC3"
		},
		{
			"bufferView":16,
			"componentType":5126,
			"count":24,
			"type":"VEC3"
		},
		{
			"bufferView":17,
			"componentType":5126,
			"count":24,
			"type":"VEC2"
		},
		{
			"bufferView":18,
			"componentType":5126,
			"count":4,
			"max":[
				2.02512526512146,
				14.923344612121582,
				3.07149600982666
			],
			"min":[
				-2.031395435333252,
				-1,
				3.07149600982666
			],
			"type":"VEC3"
		},
		{
			"bufferView":19,
			"componentType":5126,
			"count":4,
			"type":"VEC3"
		},
		{
			"bufferView":20,
			"componentType":5126,
			"count":4,
			"type":"VEC2"
		},
		{
			"bufferView":21,
			"componentType":5123,
			"count":6,
			"type":"SCALAR"
		},
		{
			"bufferView":22,
			"componentType":5126,
			"count":144,
			"max":[
				1.1118766069412231,
				1.1118767261505127,
				1.1118766069412231
			],
			"min":[
				-1.1118766069412231,
				-1.1118767261505127,
				-1.1118766069412231
			],
			"type":"VEC3"
		},
		{
			"bufferView":23,
			"componentType":5126,
			"count":144,
			"type":"VEC3"
		},
		{
			"bufferView":24,
			"componentType":5123,
			"count":852,
			"type":"SCALAR"
		},
		{
			"bufferView":25,
			"componentType":5126,
			"count":4,
			"max":[
				2.02512526512146,
				14.923344612121582,
				3.07149600982666
			],
			"min":[
				-2.031395435333252,
				-1,
				3.07149600982666
			],
			"type":"VEC3"
		},
		{
			"bufferView":26,
			"componentType":5126,
			"count":4,
			"type":"VEC3"
		},
		{
			"bufferView":27,
			"componentType":5126,
			"count":4,
			"type":"VEC2"
		},
		{
			"bufferView":28,
			"componentType":5126,
			"count":4,
			"max":[
				2.02512526512146,
				14.923344612121582,
				3.07149600982666
			],
			"min":[
				-2.031395435333252,
				-1,
				3.07149600982666
			],
			"type":"VEC3"
		},
		{
			"bufferView":29,
			"componentType":5126,
			"count":4,
			"type":"VEC3"
		},
		{
			"bufferView":30,
			"componentType":5126,
			"count":4,
			"type":"VEC2"
		},
		{
			"bufferView":31,
			"componentType":5126,
			"count":4,
			"max":[
				2.02512526512146,
				14.923344612121582,
				3.07149600982666
			],
			"min":[
				-2.031395435333252,
				-1,
				3.07149600982666
			],
			"type":"VEC3"
		},
		{
			"bufferView":32,
			"componentType":5126,
			"count":4,
			"type":"VEC3"
		},
		{
			"bufferView":33,
			"componentType":5126,
			"count":4,
			"type":"VEC2"
		},
		{
			"bufferView":34,
			"componentType":5126,
			"count":4,
			"max":[
				2.04538893699646,
				1,
				1
			],
			"min":[
				-2.0238096714019775,
				1,
				-1
			],
			"type":"VEC3"
		},
		{
			"bufferView":35,
			"componentType":5126,
			"count":4,
			"type":"VEC3"
		},
		{
			"bufferView":36,
			"componentType":5126,
			"count":4,
			"type":"VEC2"
		},
		{
			"bufferView":37,
			"componentType":5123,
			"count":6,
			"type":"SCALAR"
		},
		{
			"bufferView":38,
			"componentType":5126,
			"count":4,
			"max":[
				2.04538893699646,
				1,
				1
			],
			"min":[
				-2.0238096714019775,
				1,
				-1
			],
			"type":"VEC3"
		},
		{
			"bufferView":39,
			"componentType":5126,
			"count":4,
			"type":"VEC3"
		},
		{
			"bufferView":40,
			"componentType":5126,
			"count":4,
			"type":"VEC2"
		},
		{
			"bufferView":41,
			"componentType":5126,
			"count":4,
			"max":[
				2.04538893699646,
				1,
				1
			],
			"min":[
				-2.0238096714019775,
				1,
				-1
			],
			"type":"VEC3"
		},
		{
			"bufferView":42,
			"componentType":5126,
			"count":4,
			"type":"VEC3"
		},
		{
			"bufferView":43,
			"componentType":5126,
			"count":4,
			"type":"VEC2"
		},
		{
			"bufferView":44,
			"componentType":5126,
			"count":4,
			"max":[
				2.04538893699646,
				1,
				1
			],
			"min":[
				-2.0238096714019775,
				1,
				-1
			],
			"type":"VEC3"
		},
		{
			"bufferView":45,
			"componentType":5126,
			"count":4,
			"type":"VEC3"
		},
		{
			"bufferView":46,
			"componentType":5126,
			"count":4,
			"type":"VEC2"
		},
		{
			"bufferView":47,
			"componentType":5126,
			"count":4,
			"max":[
				2.04538893699646,
				1,
				1
			],
			"min":[
				-2.0238096714019775,
				1,
				-1
			],
			"type":"VEC3"
		},
		{
			"bufferView":48,
			"componentType":5126,
			"count":4,
			"type":"VEC3"
		},
		{
			"bufferView":49,
			"componentType":5126,
			"count":4,
			"type":"VEC2"
		},
		{
			"bufferView":50,
			"componentType":5126,
			"count":4,
			"max":[
				2.04538893699646,
				1,
				1
			],
			"min":[
				-2.0238096714019775,
				1,
				-1
			],
			"type":"VEC3"
		},
		{
			"bufferView":51,
			"componentType":5126,
			"count":4,
			"type":"VEC3"
		},
		{
			"bufferView":52,
			"componentType":5126,
			"count":4,
			"type":"VEC2"
		}
	],
	"bufferViews":[
		{
			"buffer":0,
			"byteLength":288,
			"byteOffset":0,
			"target":34962
		},
		{
			"buffer":0,
			"byteLength":288,
			"byteOffset":288,
			"target":34962
		},
		{
			"buffer":0,
			"byteLength":192,
			"byteOffset":576,
			"target":34962
		},
		{
			"buffer":0,
			"byteLength":72,
			"byteOffset":768,
			"target":34963
		},
		{
			"buffer":0,
			"byteLength":240,
			"byteOffset":840,
			"target":34962
		},
		{
			"buffer":0,
			"byteLength":240,
			"byteOffset":1080,
			"target":34962
		},
		{
			"buffer":0,
			"byteLength":160,
			"byteOffset":1320,
			"target":34962
		},
		{
			"buffer":0,
			"byteLength":60,
			"byteOffset":1480,
			"target":34963
		},
		{
			"buffer":0,
			"byteLength":288,
			"byteOffset":1540,
			"target":34962
		},
		{
			"buffer":0,
			"byteLength":288,
			"byteOffset":1828,
			"target":34962
		},
		{
			"buffer":0,
			"byteLength":192,
			"byteOffset":2116,
			"target":34962
		},
		{
			"buffer":0,
			"byteLength":48,
			"byteOffset":2308,
			"target":34962
		},
		{
			"buffer":0,
			"byteLength":48,
			"byteOffset":2356,
			"target":34962
		},
		{
			"buffer":0,
			"byteLength":32,
			"byteOffset":2404,
			"target":34962
		},
		{
			"buffer":0,
			"byteLength":12,
			"byteOffset":2436,
			"target":34963
		},
		{
			"buffer":0,
			"byteLength":288,
			"byteOffset":2448,
			"target":34962
		},
		{
			"buffer":0,
			"byteLength":288,
			"byteOffset":2736,
			"target":34962
		},
		{
			"buffer":0,
			"byteLength":192,
			"byteOffset":3024,
			"target":34962
		},
		{
			"buffer":0,
			"byteLength":48,
			"byteOffset":3216,
			"target":34962
		},
		{
			"buffer":0,
			"byteLength":48,
			"byteOffset":3264,
			"target":34962
		},
		{
			"buffer":0,
			"byteLength":32,
			"byteOffset":3312,
			"target":34962
		},
		{
			"buffer":0,
			"byteLength":12,
			"byteOffset":3344,
			"target":34963
		},
		{
			"buffer":0,
			"byteLength":1728,
			"byteOffset":3356,
			"target":34962
		},
		{
			"buffer":0,
			"byteLength":1728,
			"byteOffset":5084,
			"target":34962
		},
		{
			"buffer":0,
			"byteLength":1704,
			"byteOffset":6812,
			"target":34963
		},
		{
			"buffer":0,
			"byteLength":48,
			"byteOffset":8516,
			"target":34962
		},
		{
			"buffer":0,
			"byteLength":48,
			"byteOffset":8564,
			"target":34962
		},
		{
			"buffer":0,
			"byteLength":32,
			"byteOffset":8612,
			"target":34962
		},
		{
			"buffer":0,
			"byteLength":48,
			"byteOffset":8644,
			"target":34962
		},
		{
			"buffer":0,
			"byteLength":48,
			"byteOffset":8692,
			"target":34962
		},
		{
			"buffer":0,
			"byteLength":32,
			"byteOffset":8740,
			"target":34962
		},
		{
			"buffer":0,
			"byteLength":48,
			"byteOffset":8772,
			"target":34962
		},
		{
			"buffer":0,
			"byteLength":48,
			"byteOffset":8820,
			"target":34962
		},
		{
			"buffer":0,
			"byteLength":32,
			"byteOffset":8868,
			"target":34962
		},
		{
			"buffer":0,
			"byteLength":48,
			"byteOffset":8900,
			"target":34962
		},
		{
			"buffer":0,
			"byteLength":48,
			"byteOffset":8948,
			"target":34962
		},
		{
			"buffer":0,
			"byteLength":32,
			"byteOffset":8996,
			"target":34962
		},
		{
			"buffer":0,
			"byteLength":12,
			"byteOffset":9028,
			"target":34963
		},
		{
			"buffer":0,
			"byteLength":48,
			"byteOffset":9040,
			"target":34962
		},
		{
			"buffer":0,
			"byteLength":48,
			"byteOffset":9088,
			"target":34962
		},
		{
			"buffer":0,
			"byteLength":32,
			"byteOffset":9136,
			"target":34962
		},
		{
			"buffer":0,
			"byteLength":48,
			"byteOffset":9168,
			"target":34962
		},
		{
			"buffer":0,
			"byteLength":48,
			"byteOffset":9216,
			"target":34962
		},
		{
			"buffer":0,
			"byteLength":32,
			"byteOffset":9264,
			"target":34962
		},
		{
			"buffer":0,
			"byteLength":48,
			"byteOffset":9296,
			"target":34962
		},
		{
			"buffer":0,
			"byteLength":48,
			"byteOffset":9344,
			"target":34962
		},
		{
			"buffer":0,
			"byteLength":32,
			"byteOffset":9392,
			"target":34962
		},
		{
			"buffer":0,
			"byteLength":48,
			"byteOffset":9424,
			"target":34962
		},
		{
			"buffer":0,
			"byteLength":48,
			"byteOffset":9472,
			"target":34962
		},
		{
			"buffer":0,
			"byteLength":32,
			"byteOffset":9520,
			"target":34962
		},
		{
			"buffer":0,
			"byteLength":48,
			"byteOffset":9552,
			"target":34962
		},
		{
			"buffer":0,
			"byteLength":48,
			"byteOffset":9600,
			"target":34962
		},
		{
			"buffer":0,
			"byteLength":32,
			"byteOffset":9648,
			"target":34962
		}
	],
	"samplers":[
		{
			"magFilter":9729,
			"minFilter":9987
		}
	],
	"buffers":[
		{
			"byteLength":9680,
			"uri":"BAKA.bin"
		}
	]
}
